/* XPM */
static char *result[] = {
/* columns rows colors chars-per-pixel */
"32 32 8 1 ",
"  c #42BFE8",
". c #333C24",
"X c #586335",
"o c #7F8E44",
"O c #2789CD",
"+ c #ADB834",
"@ c #2B4E95",
"# c white",
/* pixels */
"               .Xooooooooooooooo",
"              .Xoooooooooooooooo",
"              O.+ooooooooooooooo",
"               .Xooooooooooooooo",
"              .X+ooooooooooooooo",
"              .X+ooooooooooooooo",
"              O.Xooooooooooooooo",
"               O.Xoooooooooooooo",
"               .X+oooooooooooooo",
"               O.ooooooooooooooo",
"               O.Xoooooooooooooo",
"               .Xooooooooooooooo",
"              .Xo+oooooooooooooo",
"              O.Xooooooooooooooo",
"               @.++ooooXoooooooo",
"               O.X.X++X..X++X+oX",
"                @.@..X.@@..X.XX.",
"                @@@@@.@@@@@.@..@",
"                O@@@@@@@@@@@@@@@",
"                 @@@@@@@@@@@@@@@",
"                 O@@@@@@@@@@@@@@",
"                   OO@@@@@@@@@@@",
"                     OOOOOOOOOOO",
"                                ",
"                                ",
"                                ",
"                                ",
"                                ",
"                                ",
"                                ",
"                                ",
"                                "
};
