/* XPM */
static char *result[] = {
/* columns rows colors chars-per-pixel */
"32 32 8 1 ",
"  c #7F8E44",
". c #586335",
"X c #333C24",
"o c #42BFE8",
"O c #ADB834",
"+ c #2789CD",
"@ c #2B4E95",
"# c white",
/* pixels */
"               .Xooooooooooooooo",
"                .Xoooooooooooooo",
"               OX+oooooooooooooo",
"               .Xooooooooooooooo",
"               O.Xoooooooooooooo",
"               O.Xoooooooooooooo",
"               .X+oooooooooooooo",
"              .X+ooooooooooooooo",
"              O.Xooooooooooooooo",
"               X+ooooooooooooooo",
"              .X+ooooooooooooooo",
"               .Xooooooooooooooo",
"              O .Xoooooooooooooo",
"               .X+oooooooooooooo",
"        .    OOX@ooooooooooooooo",
". O.OO.XX.OO.X.X+ooooooooooooooo",
"X..X.XX@@X.XX@X@oooooooooooooooo",
"@XX@X@@@@@X@@@@@oooooooooooooooo",
"@@@@@@@@@@@@@@@+oooooooooooooooo",
"@@@@@@@@@@@@@@@ooooooooooooooooo",
"@@@@@@@@@@@@@@+ooooooooooooooooo",
"@@@@@@@@@@@++ooooooooooooooooooo",
"+++++++++++ooooooooooooooooooooo",
"oooooooooooooooooooooooooooooooo",
"oooooooooooooooooooooooooooooooo",
"oooooooooooooooooooooooooooooooo",
"oooooooooooooooooooooooooooooooo",
"oooooooooooooooooooooooooooooooo",
"oooooooooooooooooooooooooooooooo",
"oooooooooooooooooooooooooooooooo",
"oooooooooooooooooooooooooooooooo",
"oooooooooooooooooooooooooooooooo"
};
