/* XPM */
static char * obst1_xpm[] = {
"64 64 46 1",
" 	c #7F8E44",
".	c #654D39",
"+	c #634936",
"@	c #68513E",
"#	c #898474",
"$	c #878272",
"%	c #837E6D",
"&	c #5E5446",
"*	c #614531",
"=	c #786F5F",
"-	c #736650",
";	c #86806F",
">	c #605748",
",	c #635A4C",
"'	c #5E412D",
")	c #7A7563",
"!	c #78725F",
"~	c #8E897A",
"{	c #60442F",
"]	c #8C8779",
"^	c #543825",
"/	c #908C7E",
"(	c #5B3E2A",
"_	c #7D7867",
":	c #7F7868",
"<	c #918D81",
"[	c #534A3E",
"}	c #533D2C",
"|	c #73654E",
"1	c #4E3420",
"2	c #939087",
"3	c #665D52",
"4	c #96948B",
"5	c #77715E",
"6	c #605647",
"7	c #777060",
"8	c #593A25",
"9	c #6F6858",
"0	c #6B6354",
"a	c #6A6258",
"b	c #4F311D",
"c	c #726A5A",
"d	c #50311D",
"e	c #533623",
"f	c #502F1B",
"g	c #4E2F1B",
"                                                                ",
"                                                                ",
"                                                                ",
"                                                                ",
"                            ........++++                        ",
"                            ........++++                        ",
"                      ..@@@@####$$##%%&&++**                    ",
"                      ..@@@@####$$##%%&&++**                    ",
"                    ..==--%%##;;$$$$%%##>>,,''                  ",
"                    ..==--%%##;;$$$$%%##>>,,''                  ",
"                  ++))))!!~~######$$##%%,,,,''                  ",
"                  ++))))!!~~######$$##%%,,,,''                  ",
"                {{==!!%%~~]];;##$$$$$$##%%,,,,^^                ",
"                {{==!!%%~~]];;##$$$$$$##%%,,,,^^                ",
"              **%%!!%%//]]##############]],,,,&&((              ",
"              **%%!!%%//]]##############]],,,,&&((              ",
"            {{____::<<]]~~##;;########$$]]]]&&[[&&^^            ",
"            {{____::<<]]~~##;;########$$]]]]&&[[&&^^            ",
"            {{----//]]]]############]]##]]::::&&[[}}            ",
"            {{----//]]]]############]]##]]::::&&[[}}            ",
"            **||--<<]]]]~~########$$##]]$$]]$$<<[[[[}}          ",
"            **||--<<]]]]~~########$$##]]$$]]$$<<[[[[}}          ",
"          {{||||//]]]]]]~~~~~~~~]]##]]$$]]]]<<##[[[[}}          ",
"          {{||||//]]]]]]~~~~~~~~]]##]]$$]]]]<<##[[[[}}          ",
"          ((||//]]~~]]~~]]~~~~~~<<$$$$<<<<]]]]<<[[[[&&11        ",
"          ((||//]]~~]]~~]]~~~~~~<<$$$$<<<<]]]]<<[[[[&&11        ",
"        ((||//]]~~]]~~~~]]~~////<<]]]]<<$$<<$$<<[[[[[[[[}}      ",
"        ((||//]]~~]]~~~~]]~~////<<]]]]<<$$<<$$<<[[[[[[[[}}      ",
"        {{||%%//]]~~]]]]]]~~~~//]]<<<<]]]]##2233&&&&[[[[}}      ",
"        {{||%%//]]~~]]]]]]~~~~//]]<<<<]]]]##2233&&&&[[[[}}      ",
"      ''||%%%%%%44]]]]~~~~//////<<<<<<]]2222,,,,&&&&[[&&''      ",
"      ''||%%%%%%44]]]]~~~~//////<<<<<<]]2222,,,,&&&&[[&&''      ",
"      ''%%%%%%%%;;444422////////<<<<22225555,,,,,,,,66[[''      ",
"      ''%%%%%%%%;;444422////////<<<<22225555,,,,,,,,66[[''      ",
"    ''%%%%%%%%%%;;;;;;;;44////442222))))55,,33,,,,>>6666''      ",
"    ''%%%%%%%%%%;;;;;;;;44////442222))))55,,33,,,,>>6666''      ",
"    ''__%%%%%%%%;;;;;;;;444422__))))))7755,,,,,,>>>>>>&&''      ",
"    ''__%%%%%%%%;;;;;;;;444422__))))))7755,,,,,,>>>>>>&&''      ",
"    ''%%%%__%%%%%%;;;;44__;;____))))7777,,,,,,,,>>>>66&&11      ",
"    ''%%%%__%%%%%%;;;;44__;;____))))7777,,,,,,,,>>>>66&&11      ",
"    889900;;__%%::%%;;22____%%____555555&&,,,,&&>>&&&&&&11      ",
"    889900;;__%%::%%;;22____%%____555555&&,,,,&&>>&&&&&&11      ",
"    ^^000000--%%;;;;~~______________aaaa,,,,&&,,&&&&&&11        ",
"    ^^000000--%%;;;;~~______________aaaa,,,,&&,,&&&&&&11        ",
"      ^^000000000099______________aa003300&&&&&&&&&&bb          ",
"      ^^000000000099______________aa003300&&&&&&&&&&bb          ",
"      ^^00000099990000__________aaaaaa003333&&&&&&bb            ",
"      ^^00000099990000__________aaaaaa003333&&&&&&bb            ",
"        ^^00000000000099____%%!!aa33aaaa33,,&&&&bb              ",
"        ^^00000000000099____%%!!aa33aaaa33,,&&&&bb              ",
"        ^^003300000000--cccccc99aaaaaa33,,,,bbbb                ",
"        ^^003300000000--cccccc99aaaaaa33,,,,bbbb                ",
"          ''333300009999999999990033aa,,dd11                    ",
"          ''333300009999999999990033aa,,dd11                    ",
"            ddddeedddd9999000000aaaabbdd                        ",
"            ddddeedddd9999000000aaaabbdd                        ",
"                      ddffddffddggdd                            ",
"                      ddffddffddggdd                            ",
"                                                                ",
"                                                                ",
"                                                                ",
"                                                                ",
"                                                                ",
"                                                                "};
