/* XPM */
static char *result[] = {
/* columns rows colors chars-per-pixel */
"32 32 7 1 ",
"  c #7F8E44",
". c #ADB834",
"X c #333C24",
"o c #2789CD",
"O c #42BFE8",
"+ c #586335",
"@ c white",
/* pixels */
"               .XoOOOOOOOOOOOOOO",
"                +XOOOOOOOOOOOOOO",
"               +XoOOOOOOOOOOOOOO",
"                XoOOOOOOOOOOOOOO",
"               .+XOOOOOOOOOOOOOO",
"               .+XOOOOOOOOOOOOOO",
"                XoOOOOOOOOOOOOOO",
"               +XOOOOOOOOOOOOOOO",
"               XoOOOOOOOOOOOOOOO",
"              +XoOOOOOOOOOOOOOOO",
"               +XOOOOOOOOOOOOOOO",
"                +XOOOOOOOOOOOOOO",
"               .XoOOOOOOOOOOOOOO",
"               +XOOOOOOOOOOOOOOO",
"               XoOOOOOOOOOOOOOOO",
"               XoOOOOOOOOOOOOOOO",
"               .XOOOOOOOOOOOOOOO",
"               XoOOOOOOOOOOOOOOO",
"               XoOOOOOOOOOOOOOOO",
"               .XOOOOOOOOOOOOOOO",
"               .+XOOOOOOOOOOOOOO",
"                XoOOOOOOOOOOOOOO",
"               +XOOOOOOOOOOOOOOO",
"               XoOOOOOOOOOOOOOOO",
"              +XoOOOOOOOOOOOOOOO",
"               +XOOOOOOOOOOOOOOO",
"               .XOOOOOOOOOOOOOOO",
"              +XoOOOOOOOOOOOOOOO",
"               +XOOOOOOOOOOOOOOO",
"                +XOOOOOOOOOOOOOO",
"               .XoOOOOOOOOOOOOOO",
"               +XOOOOOOOOOOOOOOO"
};
