/* XPM */
static char *result[] = {
/* columns rows colors chars-per-pixel */
"32 32 7 1 ",
"  c #42BFE8",
". c #2789CD",
"X c #333C24",
"o c #586335",
"O c #7F8E44",
"+ c #ADB834",
"@ c white",
/* pixels */
"                                ",
"                                ",
"                                ",
"                                ",
"                                ",
"                                ",
"                                ",
"                                ",
"                                ",
"                                ",
"                                ",
"                                ",
"                                ",
"                                ",
"                  .X      XX. X.",
"                 .XoX..X.XooXXoX",
"                XXoOoXXoXo++o+Oo",
"               Xo+O+OoO+oOOOOOOO",
"               .X+OOOOOOOOOOOOOO",
"               XoOOOOOOOOOOOOOOO",
"               X+OOOOOOOOOOOOOOO",
"              Xo+OOOOOOOOOOOOOOO",
"              .XoOOOOOOOOOOOOOOO",
"               .XoOOOOOOOOOOOOOO",
"               .XOOOOOOOOOOOOOOO",
"               XoOOOOOOOOOOOOOOO",
"               X+OOOOOOOOOOOOOOO",
"              Xo+OOOOOOOOOOOOOOO",
"              .XoOOOOOOOOOOOOOOO",
"              Xo+OOOOOOOOOOOOOOO",
"              XoOOOOOOOOOOOOOOOO",
"              .XoOOOOOOOOOOOOOOO"
};
