/* XPM */
static char *result[] = {
/* columns rows colors chars-per-pixel */
"46 46 9 1 ",
"  c #333C24",
". c #4F342F",
"X c #586335",
"o c #8C5B3E",
"O c #7F8E44",
"+ c #ADB834",
"@ c #D5DC1D",
"# c #C68556",
"$ c None",
/* pixels */
"$$$$$$$$$$$$$$$$$$$$$XXXX$$$$$$$$$$$$$$$$$$$$$",
"$$$$$$$$$$$$$$$$$$XXXOOOOXXX$$$$$$$$$$$$$$$$$$",
"$$$$$$$$$$$$$$$$XXOO++++++OOXX$$$$$$$$$$$$$$$$",
"$$$$$$$$$$$$$$$XO++++@@@@++++OX$$$$$$$$$$$$$$$",
"$$$$$$$$$$$$$XXO+++@@@@@@@@+++OXX$$$$$$$$$$$$$",
"$$$$$$$$$$$$XOO+++@@@@@@@@@@+++OOX$$$$$$$$$$$$",
"$$$$$$$$$$$XO+++++@@@@@@@@@@+++++OX$$$$$$$$$$$",
"$$$$$$$$$$XO+++++++@@@@@@@@+++++++OX$$$$$$$$$$",
"$$$$$$$$$$X+++++++++@@@@@@+++++++++X$$$$$$$$$$",
"$$$$$$$$$XO+++++++++++@@+++++++++++OX$$$$$$$$$",
"$$$$$$$$XO++++++++++++++++++++++++++OX$$$$$$$$",
"$$$$$$$$XO++++++++++++++++++++++++++OX$$$$$$$$",
"$$$$$$$XO++++++++++++++++++++++++++++OX$$$$$$$",
"$$$$$$XO++++++++++++++++++++++++++++++OX$$$$$$",
"$$$$$XO++++++++++++++++++++++++++++++++OX$$$$$",
"$$$$XO++++++++++++++++++++++++++++++++++OX$$$$",
"$$$$XO++++++++++++++++++++++++++++++++++OX$$$$",
"$$$$X++++++++++++++++++++++++++++++++++++X$$$$",
"$$$XO++++++++++++++++++++++++++++++++++++OX$$$",
"$$XO++++++++++++++++++++++++++++++++++++++OX$$",
"$XOO++++++++++++++++++++++++++++++++++++++OOX$",
"$XO++++++++++++++++++++++++++++++++++++++++OX$",
"$$XO++++++++++++++++++++++++++++++++++++++OX$$",
"$XO++++++++++++++++++++++++++++++++++++++++OX$",
"$XO++++++++++++++++++++++++++++++++++++++++OX$",
"$XOO++++++++++++++++++++++++++++++++++++++OOX$",
"$$XO+O++++++++++++++++++++++++++++++++++O+OX$$",
"$$XOOO++++++++++++++++++++++++++++++++++OOOX$$",
"$$XOOO+O++++++++++++++++++++++++++++++O+OOOX$$",
"$$$XOOOO++++++++++++++++++++++++++++++OOOOX $$",
"$$$ OOOOO+O++++++++++++++++++++++++O+OOOOO $$$",
"$$$ XOXOOOOO++++++++++++++++++++++OOOOOXOX $$$",
"$$$$ XXOOOOOO+O++++++++++++++++O+OOOOOOXX $$$$",
"$$$$$ XOXOOOOOO+O++O++++++O++O+OOOOOOXOX $$$$$",
"$$$$$$ XXOXOOOOOOO+OO+OO+OO+OOOOOOOXOXX $$$$$$",
"$$$$$$ X XXXOOXOOOOOOOOOOOOOOOOXOOXXX X $$$$$$",
"$$$$$$$  XXXXXXOOXOOOXOOXOOOXOOXXXXXX  $$$$$$$",
"$$$$$$$$$ X XXXXOXXOXXOOXXOXXOXXXX X $$$$$$$$$",
"$$$$$$$$$$  XX XXX XX XX XX XXX XX  $$$$$$$$$$",
"$$$$$$$$$XXX  X   XXX    XXX   X  XXX$$$$$$$$$",
"$$$$$$$$XXXXXXXX.#   #ooo   #.XXXXXXXX$$$$$$$$",
"$$$$$$$$XXXXXXX.#oo.ooooo#ooo#.XXXXXXX$$$$$$$$",
"$$$$$$$$XXXXXXX.ooooo.oXoooooo.XXXXXXX$$$$$$$$",
"$$$$$$$$XXXXXX.#oooXo.o+Xo.ooo#.XXXXXX$$$$$$$$",
"$$$$$$$$$XXXX.#oooX+XXXOXXXXooo#XXXXX$$$$$$$$$",
"$$$$$$$$$$$XXXooXXXXXXXXXXXXXXoX+XX$$$$$$$$$$$"
};
