/* XPM */
static char * exit_open_xpm[] = {
"64 64 13 1",
" 	c #7F8E44",
".	c #302C2E",
"+	c #F4B41B",
"@	c #BF7958",
"#	c #A05B53",
"$	c #F47E1B",
"%	c #EEF2AA",
"&	c #CA610B",
"*	c #472D3C",
"=	c #A24C06",
"-	c #7A444A",
";	c #EEA160",
">	c #FFC08B",
"                                                                ",
"                                                                ",
"                                                                ",
"                                                                ",
"                  ............................                  ",
"                  ............................                  ",
"                  ............................                  ",
"           .......+++@@@@@@@++++++++@@@@@@@+++.......           ",
"           .......+++@@@@@@@++++++++@@@@@@@+++.......           ",
"           .......+++@@@@@@@++++++++@@@@@@@+++.......           ",
"           .......+++@@@@@@@++++++++@@@@@@@+++.......           ",
"       ....###$$$$$$$#######%%%%%%%%#######$$$$$$$###....       ",
"       ....###$$$$$$$#######%%%%%%%%#######$$$$$$$###....       ",
"       ....###$$$$$$$#######%%%%%%%%#######$$$$$$$###....       ",
"       ....###$$$$$$$####%%%........+++####$$$$$$$###....       ",
"       ....###$$$$$$$####%%%........+++####$$$$$$$###....       ",
"       ....###$$$$$$$####%%%........+++####$$$$$$$###....       ",
"       ....###$$$$$$$####%%%........+++####$$$$$$$###....       ",
"       .......&&&&&&&....$$$........$$$....&&&&&&&.......       ",
"       .......&&&&&&&....$$$........$$$....&&&&&&&.......       ",
"       .......&&&&&&&....$$$........$$$....&&&&&&&.......       ",
"       ....*****************========*****************....       ",
"       ....*****************========*****************....       ",
"       ....*****************========*****************....       ",
"       ....*****************========*****************....       ",
"       ....******************************************....       ",
"       ....******************************************....       ",
"       ....******************************************....       ",
"       ....***------------------------------------***....       ",
"       ....***------------------------------------***....       ",
"       ....***------------------------------------***....       ",
"       ....***------------------------------------***....       ",
"       ....###------------------------------------###....       ",
"       ....###------------------------------------###....       ",
"       ....###------------------------------------###....       ",
"       ....###------------------------------------###....       ",
"       ....;;;------------------------------------;;;....       ",
"       ....;;;------------------------------------;;;....       ",
"       ....;;;------------------------------------;;;....       ",
"       ....;;;------------------------------------;;;....       ",
"       ....;;;------------------------------------;;;....       ",
"       ....;;;------------------------------------;;;....       ",
"       ....;;;------------------------------------;;;....       ",
"       ....>>>>>>>>>>>>>>>>>>>>>>>>>>>>>>>>>>>>>>>>>>....       ",
"       ....>>>>>>>>>>>>>>>>>>>>>>>>>>>>>>>>>>>>>>>>>>....       ",
"       ....>>>>>>>>>>>>>>>>>>>>>>>>>>>>>>>>>>>>>>>>>>....       ",
"       ....---=======----------------------=======---....       ",
"       ....---=======----------------------=======---....       ",
"       ....---=======----------------------=======---....       ",
"       ....---=======----------------------=======---....       ",
"       ....###&&&&&&&#######--------#######&&&&&&&###....       ",
"       ....###&&&&&&&#######--------#######&&&&&&&###....       ",
"       ....###&&&&&&&#######--------#######&&&&&&&###....       ",
"       ....---&&&&&&&----------------------&&&&&&&---....       ",
"       ....---&&&&&&&----------------------&&&&&&&---....       ",
"       ....---&&&&&&&----------------------&&&&&&&---....       ",
"       ....---&&&&&&&----------------------&&&&&&&---....       ",
"       ....###&&&&&&&######################&&&&&&&###....       ",
"       ....###&&&&&&&######################&&&&&&&###....       ",
"       ....###&&&&&&&######################&&&&&&&###....       ",
"           ...=======......................=======...           ",
"           ...=======......................=======...           ",
"           ...=======......................=======...           ",
"           ...=======......................=======...           "};
