/* XPM */
static char * exit_close_xpm[] = {
"64 64 12 1",
" 	c #7F8E44",
".	c #302C2E",
"+	c #CA610B",
"@	c #EEA160",
"#	c #F47E1B",
"$	c #FFC08B",
"%	c #EEF2AA",
"&	c #BF7958",
"*	c #F4B41B",
"=	c #A05B53",
"-	c #7A444A",
";	c #A24C06",
"                                                                ",
"                                                                ",
"                                                                ",
"                                                                ",
"                                                                ",
"                                                                ",
"                                                                ",
"                                                                ",
"                                                                ",
"                                                                ",
"                                                                ",
"                                                                ",
"                                                                ",
"                                                                ",
"           ...+++++++.......++++++++.......+++++++...           ",
"           ...+++++++.......++++++++.......+++++++...           ",
"           ...+++++++.......++++++++.......+++++++...           ",
"           ...+++++++.......++++++++.......+++++++...           ",
"       ....@@@#######@@@@@@@########@@@@@@@#######@@@....       ",
"       ....@@@#######@@@@@@@########@@@@@@@#######@@@....       ",
"       ....@@@#######@@@@@@@########@@@@@@@#######@@@....       ",
"       ....$$$%%%%%%%$$$$$$$%%%%%%%%$$$$$$$%%%%%%%$$$....       ",
"       ....$$$%%%%%%%$$$$$$$%%%%%%%%$$$$$$$%%%%%%%$$$....       ",
"       ....$$$%%%%%%%$$$$$$$%%%%%%%%$$$$$$$%%%%%%%$$$....       ",
"       ....$$$%%%%%%%$$$$$$$%%%%%%%%$$$$$$$%%%%%%%$$$....       ",
"       ....$$$%%%%%%%$$$$$$$%%%%%%%%$$$$$$$%%%%%%%$$$....       ",
"       ....$$$%%%%%%%$$$$$$$%%%%%%%%$$$$$$$%%%%%%%$$$....       ",
"       ....$$$%%%%%%%$$$$$$$%%%%%%%%$$$$$$$%%%%%%%$$$....       ",
"       ....&&&*******&&&&&&&********&&&&&&&*******&&&....       ",
"       ....&&&*******&&&&&&&********&&&&&&&*******&&&....       ",
"       ....&&&*******&&&&&&&********&&&&&&&*******&&&....       ",
"       ....&&&*******&&&&&&&********&&&&&&&*******&&&....       ",
"       ....&&&*******&&&&&&&********&&&&&&&*******&&&....       ",
"       ....&&&*******&&&&&&&********&&&&&&&*******&&&....       ",
"       ....&&&*******&&&&&&&********&&&&&&&*******&&&....       ",
"       ....&&&*******&&&&&&&********&&&&&&&*******&&&....       ",
"       ....===#######=======%%%%%%%%=======#######===....       ",
"       ....===#######=======%%%%%%%%=======#######===....       ",
"       ....===#######=======%%%%%%%%=======#######===....       ",
"       ....===#######====%%%........***====#######===....       ",
"       ....===#######====%%%........***====#######===....       ",
"       ....===#######====%%%........***====#######===....       ",
"       ....===#######====%%%........***====#######===....       ",
"       .......+++++++....###........###....+++++++.......       ",
"       .......+++++++....###........###....+++++++.......       ",
"       .......+++++++....###........###....+++++++.......       ",
"       ....---;;;;;;;-------;;;;;;;;-------;;;;;;;---....       ",
"       ....---;;;;;;;-------;;;;;;;;-------;;;;;;;---....       ",
"       ....---;;;;;;;-------;;;;;;;;-------;;;;;;;---....       ",
"       ....---;;;;;;;-------;;;;;;;;-------;;;;;;;---....       ",
"       ....===+++++++=======--------=======+++++++===....       ",
"       ....===+++++++=======--------=======+++++++===....       ",
"       ....===+++++++=======--------=======+++++++===....       ",
"       ....---+++++++----------------------+++++++---....       ",
"       ....---+++++++----------------------+++++++---....       ",
"       ....---+++++++----------------------+++++++---....       ",
"       ....---+++++++----------------------+++++++---....       ",
"       ....===+++++++======================+++++++===....       ",
"       ....===+++++++======================+++++++===....       ",
"       ....===+++++++======================+++++++===....       ",
"           ...;;;;;;;......................;;;;;;;...           ",
"           ...;;;;;;;......................;;;;;;;...           ",
"           ...;;;;;;;......................;;;;;;;...           ",
"           ...;;;;;;;......................;;;;;;;...           "};
