/* XPM */
static char * colect_xpm[] = {
"64 64 5 1",
" 	c #7F8E44",
".	c #302C2E",
"+	c #FFFFFF",
"@	c #EED878",
"#	c #CB9050",
"                                                                ",
"                                                                ",
"                                                                ",
"                                                                ",
"                                                                ",
"                                                                ",
"                                                                ",
"                                                                ",
"                                                                ",
"                                                                ",
"                                                                ",
"                                                                ",
"                                                                ",
"                                                                ",
"                                                                ",
"                                                                ",
"                                                                ",
"                                                                ",
"                            ........                            ",
"                            ........                            ",
"                          ..++@@@@@@..                          ",
"                          ..++@@@@@@..                          ",
"                        ..++++....##@@..                        ",
"                        ..++++....##@@..                        ",
"                        ..@@..    ..##..                        ",
"                        ..@@..    ..##..                        ",
"                        ..@@..    ..##..                        ",
"                        ..@@..    ..##..                        ",
"                        ..@@@@....@@##..                        ",
"                        ..@@@@....@@##..                        ",
"                          ..##@@@@##..                          ",
"                          ..##@@@@##..                          ",
"                            ....@@..                            ",
"                            ....@@..                            ",
"                              ..@@..                            ",
"                              ..@@..                            ",
"                              ..@@..                            ",
"                              ..@@..                            ",
"                          ......@@..                            ",
"                          ......@@..                            ",
"                          ..++@@##..                            ",
"                          ..++@@##..                            ",
"                            ..@@##..                            ",
"                            ..@@##..                            ",
"                          ..@@@@##..                            ",
"                          ..@@@@##..                            ",
"                          ........                              ",
"                          ........                              ",
"                                                                ",
"                                                                ",
"                                                                ",
"                                                                ",
"                                                                ",
"                                                                ",
"                                                                ",
"                                                                ",
"                                                                ",
"                                                                ",
"                                                                ",
"                                                                ",
"                                                                ",
"                                                                ",
"                                                                ",
"                                                                "};
