/* XPM */
static char * p_left2_xpm[] = {
"64 64 10 1",
" 	c #7F8E44",
".	c #70581B",
"+	c #FFF1CD",
"@	c #FFCC4B",
"#	c #FFFFFF",
"$	c #000000",
"%	c #6C330D",
"&	c #DF7126",
"*	c #40310C",
"=	c #D3A635",
"                                                                ",
"                                                                ",
"                                                                ",
"                                                                ",
"                                                                ",
"                                                                ",
"                                                                ",
"                                                                ",
"                                                                ",
"                                                                ",
"                                                                ",
"                          ..........                            ",
"                          ..........                            ",
"                          ..........                            ",
"                     .....++++++++++.....                       ",
"                    .+++++@@@@@@@@@@+++++.                      ",
"                    .+++++@@@@@@@@@@+++++.                      ",
"                 ...+@@@@@@@@@@@@@@@@@@@@+..                    ",
"                 ...+@@@@@@@@@@@@@@@@@@@@+..                    ",
"                 ...+@@@@@@@@@@@@@@@@@@@@+..                    ",
"                 ...@@@@@@@@@@@@@###$$@@@@..                    ",
"                 ...@@@@@@@@@@@@@###$$@@@@..                    ",
"                 ...@@@@@@@@@@@@@$$$$$@@@@..                    ",
"                 ...@@@@@@@@@@@@@$$$$$@@@@..                    ",
"                 ...@@@@@@@@@@@@@$$$$$@@@@..                    ",
"                 %%%&&&@@@@@@@@@@$$$$$@@@@..                    ",
"                 %%%&&&@@@@@@@@@@$$$$$@@@@..                    ",
"               %%&&&&&&&&&@@@@@@@@@@@@@@@@..                    ",
"               %%&&&&&&&&&@@@@@@@@@@@@@@@@..                    ",
"               %%&&&&&&&&&@@@@@@@@@@@@@@@@..                    ",
"                 ***======@@@@@@@@@@@@@@@=**                    ",
"                 ***======@@@@@@@@@@@@@@@=**                    ",
"                    *==@@@@@@@@@@@@@@@===*                      ",
"                    *==@@@@@@@@@@@@@@@===*                      ",
"                     **===============***   *****               ",
"                     **===============***   *****               ",
"                    *====================***=====***            ",
"                    *====================***=====***            ",
"                 ***=============@@@@@@@@@@@@@@==...            ",
"                 ***=============@@@@@@@@@@@@@@==...            ",
"                 ***=============@@@@@@@@@@@@@@==...            ",
"                 ***======@@@@@@@@@@@@@@@@@@@@@@@...            ",
"                 ***======@@@@@@@@@@@@@@@@@@@@@@@...            ",
"                 ...@@@@@@@@@@@@@@@@@@@@@@@@@@@@@...            ",
"                 ...@@@@@@@@@@@@@@@@@@@@@@@@@@@@@...            ",
"                 ...@@@@@@@@@@@@@@@@@@@@@@@@@@@@@...            ",
"                 ...@@@@@@@@@@@==@@@@@@@@@@@@@@@@...            ",
"                 ...@@@@@@@@@@@==@@@@@@@@@@@@@@@@...            ",
"                 ***=@@@@@@@@@@=====@@@@@@@@===*****            ",
"                 ***=@@@@@@@@@@=====@@@@@@@@===*****            ",
"                 ****=======================*****               ",
"                 ****=======================*****               ",
"                 ****=======================*****               ",
"                    ***************************                 ",
"                     ***********************                    ",
"                     ***********************                    ",
"                     ***********************                    ",
"                       %%%%%          %%%%                      ",
"                       %%%%%          %%%%                      ",
"                     %%%%%%%        &&&&&&                      ",
"                     %%%%%%%        &&&&&&                      ",
"                     %%%%%%%        &&&&&&                      ",
"                                                                ",
"                                                                "};
