/* XPM */
static char * p_right_xpm[] = {
"64 64 10 1",
" 	c #7F8E44",
".	c #70581B",
"+	c #FFF1CD",
"@	c #FFCC4B",
"#	c #000000",
"$	c #FFFFFF",
"%	c #DF7126",
"&	c #6C330D",
"*	c #40310C",
"=	c #D3A635",
"                                                                ",
"                                                                ",
"                                                                ",
"                                                                ",
"                                                                ",
"                                                                ",
"                                                                ",
"                                                                ",
"                                                                ",
"                                                                ",
"                                                                ",
"                            ..........                          ",
"                            ..........                          ",
"                            ..........                          ",
"                       .....++++++++++.....                     ",
"                      .+++++@@@@@@@@@@+++++.                    ",
"                      .+++++@@@@@@@@@@+++++.                    ",
"                    ..+@@@@@@@@@@@@@@@@@@@@+...                 ",
"                    ..+@@@@@@@@@@@@@@@@@@@@+...                 ",
"                    ..+@@@@@@@@@@@@@@@@@@@@+...                 ",
"                    ..@@@@##$$$@@@@@@@@@@@@@...                 ",
"                    ..@@@@##$$$@@@@@@@@@@@@@...                 ",
"                    ..@@@@#####@@@@@@@@@@@@@...                 ",
"                    ..@@@@#####@@@@@@@@@@@@@...                 ",
"                    ..@@@@#####@@@@@@@@@@@@@...                 ",
"                    ..@@@@#####@@@@@@@@@@%%%&&&                 ",
"                    ..@@@@#####@@@@@@@@@@%%%&&&                 ",
"                    ..@@@@@@@@@@@@@@@@%%%%%%%%%&&               ",
"                    ..@@@@@@@@@@@@@@@@%%%%%%%%%&&               ",
"                    ..@@@@@@@@@@@@@@@@%%%%%%%%%&&               ",
"                    **=@@@@@@@@@@@@@@@======***                 ",
"                    **=@@@@@@@@@@@@@@@======***                 ",
"                      *===@@@@@@@@@@@@@@@==*                    ",
"                      *===@@@@@@@@@@@@@@@==*                    ",
"               *****   ***===============**                     ",
"               *****   ***===============**                     ",
"            ***=====***====================*                    ",
"            ***=====***====================*                    ",
"            ...==@@@@@@@@@@@@@@=============***                 ",
"            ...==@@@@@@@@@@@@@@=============***                 ",
"            ...==@@@@@@@@@@@@@@=============***                 ",
"            ...@@@@@@@@@@@@@@@@@@@@@@@======***                 ",
"            ...@@@@@@@@@@@@@@@@@@@@@@@======***                 ",
"            ...@@@@@@@@@@@@@@@@@@@@@@@@@@@@@...                 ",
"            ...@@@@@@@@@@@@@@@@@@@@@@@@@@@@@...                 ",
"            ...@@@@@@@@@@@@@@@@@@@@@@@@@@@@@...                 ",
"            ...@@@@@@@@@@@@@@@@==@@@@@@@@@@@...                 ",
"            ...@@@@@@@@@@@@@@@@==@@@@@@@@@@@...                 ",
"            *****===@@@@@@@@=====@@@@@@@@@@=***                 ",
"            *****===@@@@@@@@=====@@@@@@@@@@=***                 ",
"               *****=======================****                 ",
"               *****=======================****                 ",
"               *****=======================****                 ",
"                 ***************************                    ",
"                    ***********************                     ",
"                    ***********************                     ",
"                    ***********************                     ",
"                      &&&&          &&&&&                       ",
"                      &&&&          &&&&&                       ",
"                      %%%%%%        &&&&&&&                     ",
"                      %%%%%%        &&&&&&&                     ",
"                      %%%%%%        &&&&&&&                     ",
"                                                                ",
"                                                                "};
