/* XPM */
static char *bfb9fd83f7954eadf445b3f403a5057diAy3gkizipktpTn5[] = {
/* columns rows colors chars-per-pixel */
"192 48 10 1 ",
"  c None",
". c black",
"X c #40310C",
"o c #6C330D",
"O c #70581B",
"+ c #DF7126",
"@ c #D3A635",
"# c #FFCC4B",
"$ c #FFF4D8",
"% c white",
/* pixels */
"                                                                                                                                                                                                ",
"                                                                                                                                                                                                ",
"                                                                                                                                                                                                ",
"                                                                                                                                                                                                ",
"                                                                                                                                                                                                ",
"                                                                                                                                                                                                ",
"                                                                                                                                                                                                ",
"                                                                                                                                                                                                ",
"                                                                                                                                                                                                ",
"                                                                                                                                                                                                ",
"                                                                                                                                                                                                ",
"                                                                                                                                                                                                ",
"                                                                                                                                                                                                ",
"                                                                                                                                                                                                ",
"                                                                                                                                                                                                ",
"                                                                                                                                                                                                ",
"                                                                                                                                                                                                ",
"                                                                                                                                                                                                ",
"                                                                                                                                                                                                ",
"                                                                                                                                                                                                ",
"                                                                                                                                                                                                ",
"                                                                                                                                                                                                ",
"                       %%%%                                                                                            %%%%                                                                     ",
"                     %%OOOO%%                                          %%%%                                          %%OOOO%%                                          %%%%                     ",
"                    %OO$$$$OO%                                       %%OOOO%%                                       %OO$$$$OO%                                       %%OOOO%%                   ",
"                   %O$$####$$O%                                     %OO$$$$OO%                                     %O$$####$$O%                                     %OO$$$$OO%                  ",
"                  %O$########$O%                                   %O$$####$$O%                                   %O$########$O%                                   %O$$####$$O%                 ",
"                  %O###.%#####O%                                  %O$########$O%                                  %O###.%#####O%                                  %O$########$O%                ",
"                  %O###..#####O%                                  %O####.%####O%                                  %O###..#####O%                                  %O##.%######O%                ",
"                  %O###..####++o%                                 %O####..####Oo%                                 %O###..####++o%                                 %O##..######O%                ",
"                  %O########++++o%                                %O####..####++o%                                %O########++++o%                                %O##..####++o%                ",
"                  %X@#######@@Xo%                                 %O#########++++o%                               %X@#######@@Xo%                                 %O#######++++o%               ",
"                 %%%X@#######X%%                                  %X@########@Xoo%                               %%%X@#######X%%                                  %X@######@@@X%                ",
"                %XX%%X@@@@@@X%                                   %%%X@#######X%%%                               %XX%%X@@@@@@X%                                   %%%X@######@X%                 ",
"               %X@@XX@@@@@@@@X%                                 %XX%%X@@@@@@X%                                 %X@@XX@@@@@@@@X%                                 %XX%%X@@@@@@X%                  ",
"               %O@@######@@@@@X%                               %X@@XX@@@@@@@@X%                                %O@@######@@@@@X%                               %X@@XX@@@@@@@@X%                 ",
"               %O###########@@X%                               %O@@@######@@@@X%                               %O###########@@X%                               %O@######@@@@@@X%                ",
"               %O#############O%                               %O@###########@X%                               %O#############O%                               %O##########@@@X%                ",
"               %O########@####O%                               %O#############O%                               %O########@####O%                               %O#############O%                ",
"               %XX@#####@@###@X%                               %O#########@###O%                               %XX@#####@@###@X%                               %O#######@#####O%                ",
"                %XX@@@@@@@@@@XX%                               %XX@######@@##@X%                                %XX@@@@@@@@@@XX%                               %XX@####@@####@X%                ",
"                 %XXXXXXXXXXXX%                                 %XX@@@@@@@@@@XX%                                 %XXXXXXXXXXXX%                                 %XX@@@@@@@@@@XX%                ",
"                  %XXXXXXXXXX%                                   %XXXXXXXXXXXX%                                   %XXXXXXXXXX%                                   %XXXXXXXXXXXX%                 ",
"                   %%oo%XXXX%                                     %XXXXXXXXXX%                                     %XXXX%oo%%                                     %XXXXXXXXXX%                  ",
"                    %++%%oo%                                       %%XooXXX%%                                       %oo%%oo%                                       %oo%%%%oo%                   ",
"                    %+++%oo%                                         %++oo%                                         %++%%ooo%                                      %++%  %oo%%                  ",
"                     %%%%ooo%                                        %+++oo%                                        %+++%%%%                                       %+++% %ooo%                  ",
"                         %%%                                          %%%%%                                          %%%                                            %%%   %%%                   "
};
