/* XPM */
static char *bc4530c4fc724134e73237d9e5e4ca0ei2nfr4C2vf4Y6FTV[] = {
/* columns rows colors chars-per-pixel */
"192 48 10 1 ",
"  c None",
". c black",
"X c #40310C",
"o c #6C330D",
"O c #70581B",
"+ c #DF7126",
"@ c #D3A635",
"# c #FFCC4B",
"$ c #FFF4D8",
"% c white",
/* pixels */
"                                                                                                                                                                                                ",
"                                                                                                                                                                                                ",
"                                                                                                                                                                                                ",
"                                                                                                                                                                                                ",
"                                                                                                                                                                                                ",
"                                                                                                                                                                                                ",
"                                                                                                                                                                                                ",
"                                                                                                                                                                                                ",
"                                                                                                                                                                                                ",
"                                                                                                                                                                                                ",
"                                                                                                                                                                                                ",
"                                                                                                                                                                                                ",
"                                                                                                                                                                                                ",
"                                                                                                                                                                                                ",
"                                                                                                                                                                                                ",
"                                                                                                                                                                                                ",
"                                                                                                                                                                                                ",
"                                                                                                                                                                                                ",
"                                                                                                                                                                                                ",
"                                                                                                                                                                                                ",
"                                                                                                                                                                                                ",
"                                                                                                                                                                                                ",
"                                                                     %%%%                                                                                            %%%%                       ",
"                     %%%%                                          %%OOOO%%                                          %%%%                                          %%OOOO%%                     ",
"                   %%OOOO%%                                       %OO$$$$OO%                                       %%OOOO%%                                       %OO$$$$OO%                    ",
"                  %OO$$$$OO%                                     %O$$####$$O%                                     %OO$$$$OO%                                     %O$$####$$O%                   ",
"                 %O$$####$$O%                                   %O$########$O%                                   %O$$####$$O%                                   %O$########$O%                  ",
"                %O$########$O%                                  %O#####%.###O%                                  %O$########$O%                                  %O#####%.###O%                  ",
"                %O######%.##O%                                  %O#####..###O%                                  %O####%.####O%                                  %O#####..###O%                  ",
"                %O######..##O%                                 %o++####..###O%                                 %oO####..####O%                                 %o++####..###O%                  ",
"                %o++####..##O%                                %o++++########O%                                %o++####..####O%                                %o++++########O%                  ",
"               %o++++#######O%                                 %oX@@#######@X%                               %o++++#########O%                                 %oX@@#######@X%                  ",
"                %X@@@######@X%                                  %%X#######@X%%%                               %ooX@########@X%                                  %%X#######@X%%%                 ",
"                 %X@######@X%%%                                   %X@@@@@@X%%XX%                               %%%X#######@X%%%                                   %X@@@@@@X%%XX%                ",
"                  %X@@@@@@X%%XX%                                 %X@@@@@@@@XX@@X%                                 %X@@@@@@X%%XX%                                 %X@@@@@@@@XX@@X%               ",
"                 %X@@@@@@@@XX@@X%                               %X@@@@@######@@O%                                %X@@@@@@@@XX@@X%                               %X@@@@@######@@O%               ",
"                %X@@@@@@######@O%                               %X@@###########O%                               %X@@@@######@@@O%                               %X@@###########O%               ",
"                %X@@@##########O%                               %O#############O%                               %X@###########@O%                               %O#############O%               ",
"                %O#############O%                               %O####@########O%                               %O#############O%                               %O####@########O%               ",
"                %O#####@#######O%                               %X@###@@#####@XX%                               %O###@#########O%                               %X@###@@#####@XX%               ",
"                %X@####@@####@XX%                               %XX@@@@@@@@@@XX%                                %X@##@@######@XX%                               %XX@@@@@@@@@@XX%                ",
"                %XX@@@@@@@@@@XX%                                 %XXXXXXXXXXXX%                                 %XX@@@@@@@@@@XX%                                 %XXXXXXXXXXXX%                 ",
"                 %XXXXXXXXXXXX%                                   %XXXXXXXXXX%                                   %XXXXXXXXXXXX%                                   %XXXXXXXXXX%                  ",
"                  %XXXXXXXXXX%                                     %%oo%XXXX%                                     %XXXXXXXXXX%                                     %XXXX%oo%%                   ",
"                   %oo%%%%oo%                                       %oo%%oo%                                       %%XXXooX%%                                       %oo%%++%                    ",
"                  %%oo%  %++%                                      %ooo%%++%                                         %oo++%                                         %oo%+++%                    ",
"                  %ooo% %+++%                                       %%%%+++%                                        %oo+++%                                        %ooo%%%%                     ",
"                   %%%   %%%                                            %%%                                          %%%%%                                          %%%                         "
};
